<svg width="122" viewBox="0 0 122 11">
<path d="M5.78563 2.672C5.90296 2.61867 6.08429 2.56 6.32963 2.496C6.58563 2.42133 6.84163 2.384 7.09763 2.384C7.54563 2.384 7.91896 2.45333 8.21763 2.592C8.51629 2.72 8.69763 2.912 8.76163 3.168C8.87896 3.60533 8.98563 4.016 9.08162 4.4C9.18829 4.77333 9.28963 5.136 9.38563 5.488C9.48163 5.82933 9.57229 6.17067 9.65763 6.512C9.75363 6.85333 9.84429 7.21067 9.92963 7.584H10.0096C10.1056 6.93333 10.191 6.31467 10.2656 5.728C10.3403 5.13067 10.4096 4.54933 10.4736 3.984C10.5376 3.408 10.6016 2.84267 10.6656 2.288C10.7296 1.72267 10.7936 1.152 10.8576 0.575999C11.2523 0.352 11.6736 0.24 12.1216 0.24C12.5163 0.24 12.8576 0.325333 13.1456 0.495999C13.4336 0.666666 13.5776 0.954666 13.5776 1.36C13.5776 1.59467 13.551 1.93067 13.4976 2.368C13.455 2.79467 13.391 3.27467 13.3056 3.808C13.231 4.34133 13.1403 4.90133 13.0336 5.488C12.927 6.07467 12.815 6.63467 12.6976 7.168C12.5803 7.70133 12.4576 8.18667 12.3296 8.624C12.2123 9.05067 12.1003 9.38133 11.9936 9.616C11.8336 9.76533 11.5723 9.888 11.2096 9.984C10.847 10.08 10.4736 10.128 10.0896 10.128C9.58829 10.128 9.16163 10.064 8.80963 9.936C8.46829 9.79733 8.26029 9.60533 8.18563 9.36C8.04696 8.93333 7.89763 8.42667 7.73763 7.84C7.57763 7.25333 7.40696 6.608 7.22563 5.904C7.07629 6.59733 6.92163 7.27467 6.76163 7.936C6.60163 8.59733 6.45763 9.15733 6.32963 9.616C6.16963 9.76533 5.92963 9.888 5.60963 9.984C5.28963 10.08 4.93763 10.128 4.55363 10.128C4.07363 10.128 3.63629 10.064 3.24163 9.936C2.85763 9.79733 2.60696 9.60533 2.48963 9.36C2.39363 9.168 2.28696 8.88533 2.16963 8.512C2.06296 8.128 1.95096 7.696 1.83363 7.216C1.71629 6.72533 1.59363 6.19733 1.46563 5.632C1.34829 5.06667 1.23629 4.50133 1.12963 3.936C1.03363 3.37067 0.942958 2.82133 0.857625 2.288C0.772292 1.744 0.708292 1.248 0.665625 0.799999C0.814958 0.661333 1.02296 0.533333 1.28963 0.415999C1.55629 0.298666 1.84429 0.24 2.15363 0.24C2.55896 0.24 2.88963 0.330666 3.14563 0.511999C3.41229 0.682666 3.57763 0.976 3.64163 1.392C3.81229 2.48 3.95096 3.38667 4.05763 4.112C4.17496 4.83733 4.26563 5.43467 4.32963 5.904C4.40429 6.36267 4.45763 6.72 4.48962 6.976C4.52163 7.232 4.55363 7.43467 4.58563 7.584H4.66563C4.76163 7.15733 4.85229 6.76267 4.93763 6.4C5.02296 6.03733 5.10829 5.67467 5.19363 5.312C5.28963 4.93867 5.38563 4.544 5.48163 4.128C5.57763 3.70133 5.67896 3.216 5.78563 2.672ZM23.7901 9.936C23.6728 9.968 23.4861 10 23.2301 10.032C22.9848 10.064 22.7395 10.08 22.4941 10.08C22.2488 10.08 22.0301 10.0587 21.8381 10.016C21.6568 9.984 21.5021 9.92 21.3741 9.824C21.2461 9.728 21.1501 9.59467 21.0861 9.424C21.0221 9.25333 20.9901 9.02933 20.9901 8.752V6.256H17.9181V9.936C17.8008 9.968 17.6141 10 17.3581 10.032C17.1128 10.064 16.8675 10.08 16.6221 10.08C16.3768 10.08 16.1581 10.0587 15.9661 10.016C15.7848 9.984 15.6301 9.92 15.5021 9.824C15.3741 9.728 15.2781 9.59467 15.2141 9.424C15.1501 9.25333 15.1181 9.02933 15.1181 8.752V0.304C15.2355 0.282666 15.4221 0.256 15.6781 0.224C15.9341 0.181333 16.1795 0.16 16.4141 0.16C16.6595 0.16 16.8728 0.181333 17.0541 0.224C17.2461 0.256 17.4061 0.319999 17.5341 0.415999C17.6621 0.511999 17.7581 0.645333 17.8221 0.816C17.8861 0.986666 17.9181 1.21067 17.9181 1.488V4.048H20.9901V0.304C21.1075 0.282666 21.2941 0.256 21.5501 0.224C21.8061 0.181333 22.0515 0.16 22.2861 0.16C22.5315 0.16 22.7448 0.181333 22.9261 0.224C23.1181 0.256 23.2781 0.319999 23.4061 0.415999C23.5341 0.511999 23.6301 0.645333 23.6941 0.816C23.7581 0.986666 23.7901 1.21067 23.7901 1.488V9.936ZM25.3881 5.136C25.3881 4.304 25.5161 3.568 25.7721 2.928C26.0388 2.288 26.3961 1.75467 26.8441 1.328C27.3028 0.890666 27.8361 0.56 28.4441 0.335999C29.0628 0.112 29.7295 0 30.4441 0C31.1588 0 31.8201 0.112 32.4281 0.335999C33.0468 0.56 33.5855 0.890666 34.0441 1.328C34.5028 1.75467 34.8601 2.288 35.1161 2.928C35.3828 3.568 35.5161 4.304 35.5161 5.136C35.5161 5.968 35.3881 6.70933 35.1321 7.36C34.8761 8 34.5188 8.53867 34.0601 8.976C33.6121 9.40267 33.0788 9.728 32.4601 9.952C31.8415 10.176 31.1695 10.288 30.4441 10.288C29.7188 10.288 29.0468 10.176 28.4281 9.952C27.8095 9.71733 27.2761 9.38133 26.8281 8.944C26.3801 8.50667 26.0281 7.968 25.7721 7.328C25.5161 6.688 25.3881 5.95733 25.3881 5.136ZM28.2681 5.136C28.2681 6.10667 28.4655 6.832 28.8601 7.312C29.2548 7.792 29.7828 8.032 30.4441 8.032C31.1161 8.032 31.6495 7.792 32.0441 7.312C32.4388 6.832 32.6361 6.10667 32.6361 5.136C32.6361 4.176 32.4388 3.456 32.0441 2.976C31.6601 2.496 31.1321 2.256 30.4601 2.256C29.7988 2.256 29.2655 2.496 28.8601 2.976C28.4655 3.44533 28.2681 4.16533 28.2681 5.136ZM43.0733 6.144C42.6039 5.984 42.1773 5.824 41.7933 5.664C41.4093 5.49333 41.0786 5.29067 40.8013 5.056C40.5239 4.82133 40.3053 4.544 40.1453 4.224C39.9959 3.89333 39.9213 3.49333 39.9213 3.024C39.9213 2.11733 40.2679 1.392 40.9613 0.848C41.6653 0.304 42.6466 0.0319996 43.9053 0.0319996C44.3639 0.0319996 44.7906 0.0639995 45.1853 0.127999C45.5799 0.192 45.9159 0.293333 46.1933 0.431999C46.4813 0.559999 46.7053 0.730666 46.8653 0.943999C47.0253 1.14667 47.1053 1.38667 47.1053 1.664C47.1053 1.94133 47.0413 2.18133 46.9133 2.384C46.7853 2.576 46.6306 2.74133 46.4493 2.88C46.2146 2.73067 45.8999 2.60267 45.5053 2.496C45.1106 2.37867 44.6786 2.32 44.2093 2.32C43.7293 2.32 43.3773 2.38933 43.1533 2.528C42.9293 2.656 42.8173 2.82133 42.8173 3.024C42.8173 3.184 42.8866 3.31733 43.0253 3.424C43.1639 3.52 43.3719 3.61067 43.6493 3.696L44.4973 3.968C45.4999 4.288 46.2679 4.69867 46.8013 5.2C47.3453 5.69067 47.6173 6.36267 47.6173 7.216C47.6173 8.12267 47.2599 8.85867 46.5453 9.424C45.8306 9.97867 44.7799 10.256 43.3932 10.256C42.9026 10.256 42.4439 10.2133 42.0173 10.128C41.6013 10.0533 41.2333 9.94133 40.9133 9.792C40.6039 9.632 40.3586 9.44 40.1773 9.216C40.0066 8.98133 39.9213 8.71467 39.9213 8.416C39.9213 8.10667 40.0119 7.84533 40.1933 7.632C40.3746 7.408 40.5719 7.23733 40.7853 7.12C41.0839 7.35467 41.4466 7.55733 41.8733 7.728C42.3106 7.89867 42.7853 7.984 43.2973 7.984C43.8199 7.984 44.1879 7.904 44.4013 7.744C44.6146 7.584 44.7213 7.39733 44.7213 7.184C44.7213 6.97067 44.6359 6.81067 44.4653 6.704C44.2946 6.58667 44.0546 6.47467 43.7453 6.368L43.0733 6.144ZM51.2603 0.592C51.4416 0.485333 51.7136 0.383999 52.0763 0.287999C52.4496 0.191999 52.8229 0.143999 53.1963 0.143999C53.7296 0.143999 54.1989 0.223999 54.6043 0.384C55.0203 0.533333 55.2869 0.773333 55.4043 1.104C55.5963 1.65867 55.8043 2.304 56.0283 3.04C56.2523 3.776 56.4763 4.53867 56.7003 5.328C56.9243 6.10667 57.1429 6.88 57.3563 7.648C57.5696 8.40533 57.7563 9.07733 57.9163 9.664C57.7883 9.81333 57.5963 9.93067 57.3403 10.016C57.0843 10.112 56.7803 10.16 56.4283 10.16C56.1723 10.16 55.9536 10.1387 55.7723 10.096C55.6016 10.0533 55.4576 9.98933 55.3403 9.904C55.2336 9.81867 55.1429 9.70667 55.0683 9.568C55.0043 9.42933 54.9456 9.26933 54.8923 9.088L54.6043 7.984H51.7083C51.6229 8.304 51.5376 8.63467 51.4523 8.976C51.3669 9.31733 51.2816 9.648 51.1963 9.968C51.0469 10.0213 50.8869 10.064 50.7163 10.096C50.5563 10.1387 50.3589 10.16 50.1243 10.16C49.5803 10.16 49.1749 10.0693 48.9083 9.888C48.6523 9.696 48.5243 9.43467 48.5243 9.104C48.5243 8.95467 48.5456 8.80533 48.5883 8.656C48.6309 8.50667 48.6789 8.33067 48.7323 8.128C48.8069 7.84 48.9083 7.48267 49.0363 7.056C49.1749 6.62933 49.3243 6.17067 49.4843 5.68C49.6443 5.17867 49.8149 4.66667 49.9963 4.144C50.1776 3.62133 50.3482 3.13067 50.5082 2.672C50.6683 2.20267 50.8123 1.78667 50.9403 1.424C51.0789 1.06133 51.1856 0.783999 51.2603 0.592ZM53.1803 2.656C53.0309 3.104 52.8603 3.60533 52.6683 4.16C52.4869 4.704 52.3216 5.25867 52.1723 5.824H54.1563C54.0069 5.248 53.8523 4.688 53.6923 4.144C53.5429 3.58933 53.4043 3.09333 53.2763 2.656H53.1803ZM62.0275 9.936C61.9102 9.968 61.7235 10 61.4675 10.032C61.2222 10.064 60.9768 10.08 60.7315 10.08C60.4862 10.08 60.2675 10.0587 60.0755 10.016C59.8942 9.984 59.7395 9.92 59.6115 9.824C59.4835 9.728 59.3875 9.59467 59.3235 9.424C59.2595 9.25333 59.2275 9.02933 59.2275 8.752V0.304C59.3448 0.282666 59.5315 0.256 59.7875 0.224C60.0435 0.181333 60.2888 0.16 60.5235 0.16C60.7688 0.16 60.9822 0.181333 61.1635 0.224C61.3555 0.256 61.5155 0.319999 61.6435 0.415999C61.7715 0.511999 61.8675 0.645333 61.9315 0.816C61.9955 0.986666 62.0275 1.21067 62.0275 1.488V9.936ZM66.8865 7.92C67.0038 7.94133 67.1478 7.96267 67.3185 7.984C67.4892 7.99467 67.6492 8 67.7985 8C68.1612 8 68.4918 7.94667 68.7905 7.84C69.0998 7.73333 69.3612 7.568 69.5745 7.344C69.7985 7.12 69.9692 6.832 70.0865 6.48C70.2145 6.11733 70.2785 5.68533 70.2785 5.184C70.2785 4.224 70.0545 3.504 69.6065 3.024C69.1585 2.53333 68.5612 2.288 67.8145 2.288C67.6652 2.288 67.5105 2.29333 67.3505 2.304C67.2012 2.31467 67.0465 2.33067 66.8865 2.352V7.92ZM67.7825 10.256C67.6012 10.256 67.3932 10.2507 67.1585 10.24C66.9238 10.2293 66.6785 10.208 66.4225 10.176C66.1772 10.144 65.9265 10.1013 65.6705 10.048C65.4252 10.0053 65.1958 9.94133 64.9825 9.856C64.3958 9.632 64.1025 9.24267 64.1025 8.688V1.216C64.1025 0.991999 64.1612 0.821333 64.2785 0.704C64.4065 0.575999 64.5772 0.474666 64.7905 0.4C65.2492 0.250666 65.7345 0.154666 66.2465 0.112C66.7585 0.0586662 67.2172 0.0319996 67.6225 0.0319996C68.4545 0.0319996 69.2065 0.133333 69.8785 0.335999C70.5612 0.538666 71.1425 0.853333 71.6225 1.28C72.1132 1.696 72.4918 2.224 72.7585 2.864C73.0252 3.504 73.1585 4.26133 73.1585 5.136C73.1585 5.98933 73.0305 6.736 72.7745 7.376C72.5185 8.00533 72.1505 8.53867 71.6705 8.976C71.2012 9.40267 70.6358 9.72267 69.9745 9.936C69.3132 10.1493 68.5825 10.256 67.7825 10.256ZM82.4419 2.672C82.5592 2.61867 82.7405 2.56 82.9859 2.496C83.2419 2.42133 83.4979 2.384 83.7539 2.384C84.2019 2.384 84.5752 2.45333 84.8739 2.592C85.1725 2.72 85.3539 2.912 85.4179 3.168C85.5352 3.60533 85.6419 4.016 85.7379 4.4C85.8445 4.77333 85.9459 5.136 86.0419 5.488C86.1379 5.82933 86.2285 6.17067 86.3139 6.512C86.4099 6.85333 86.5005 7.21067 86.5859 7.584H86.6659C86.7619 6.93333 86.8472 6.31467 86.9219 5.728C86.9965 5.13067 87.0659 4.54933 87.1299 3.984C87.1939 3.408 87.2579 2.84267 87.3219 2.288C87.3859 1.72267 87.4499 1.152 87.5139 0.575999C87.9085 0.352 88.3299 0.24 88.7779 0.24C89.1725 0.24 89.5139 0.325333 89.8019 0.495999C90.0899 0.666666 90.2339 0.954666 90.2339 1.36C90.2339 1.59467 90.2072 1.93067 90.1539 2.368C90.1112 2.79467 90.0472 3.27467 89.9619 3.808C89.8872 4.34133 89.7965 4.90133 89.6899 5.488C89.5832 6.07467 89.4712 6.63467 89.3539 7.168C89.2365 7.70133 89.1139 8.18667 88.9859 8.624C88.8685 9.05067 88.7565 9.38133 88.6499 9.616C88.4899 9.76533 88.2285 9.888 87.8659 9.984C87.5032 10.08 87.1299 10.128 86.7459 10.128C86.2445 10.128 85.8179 10.064 85.4659 9.936C85.1245 9.79733 84.9165 9.60533 84.8419 9.36C84.7032 8.93333 84.5539 8.42667 84.3939 7.84C84.2339 7.25333 84.0632 6.608 83.8819 5.904C83.7325 6.59733 83.5779 7.27467 83.4179 7.936C83.2579 8.59733 83.1139 9.15733 82.9859 9.616C82.8259 9.76533 82.5859 9.888 82.2659 9.984C81.9459 10.08 81.5939 10.128 81.2099 10.128C80.7299 10.128 80.2925 10.064 79.8979 9.936C79.5139 9.79733 79.2632 9.60533 79.1459 9.36C79.0499 9.168 78.9432 8.88533 78.8259 8.512C78.7192 8.128 78.6072 7.696 78.4899 7.216C78.3725 6.72533 78.2499 6.19733 78.1219 5.632C78.0045 5.06667 77.8925 4.50133 77.7859 3.936C77.6899 3.37067 77.5992 2.82133 77.5139 2.288C77.4285 1.744 77.3645 1.248 77.3219 0.799999C77.4712 0.661333 77.6792 0.533333 77.9459 0.415999C78.2125 0.298666 78.5005 0.24 78.8099 0.24C79.2152 0.24 79.5459 0.330666 79.8019 0.511999C80.0685 0.682666 80.2339 0.976 80.2979 1.392C80.4685 2.48 80.6072 3.38667 80.7139 4.112C80.8312 4.83733 80.9219 5.43467 80.9859 5.904C81.0605 6.36267 81.1139 6.72 81.1459 6.976C81.1779 7.232 81.2099 7.43467 81.2419 7.584H81.3219C81.4179 7.15733 81.5085 6.76267 81.5939 6.4C81.6792 6.03733 81.7645 5.67467 81.8499 5.312C81.9459 4.93867 82.0419 4.544 82.1379 4.128C82.2339 3.70133 82.3352 3.216 82.4419 2.672ZM91.2944 5.136C91.2944 4.304 91.4224 3.568 91.6784 2.928C91.945 2.288 92.3024 1.75467 92.7504 1.328C93.209 0.890666 93.7424 0.56 94.3504 0.335999C94.969 0.112 95.6357 0 96.3504 0C97.065 0 97.7264 0.112 98.3344 0.335999C98.953 0.56 99.4917 0.890666 99.9504 1.328C100.409 1.75467 100.766 2.288 101.022 2.928C101.289 3.568 101.422 4.304 101.422 5.136C101.422 5.968 101.294 6.70933 101.038 7.36C100.782 8 100.425 8.53867 99.9664 8.976C99.5184 9.40267 98.985 9.728 98.3664 9.952C97.7477 10.176 97.0757 10.288 96.3504 10.288C95.625 10.288 94.953 10.176 94.3344 9.952C93.7157 9.71733 93.1824 9.38133 92.7344 8.944C92.2864 8.50667 91.9344 7.968 91.6784 7.328C91.4224 6.688 91.2944 5.95733 91.2944 5.136ZM94.1744 5.136C94.1744 6.10667 94.3717 6.832 94.7664 7.312C95.161 7.792 95.689 8.032 96.3504 8.032C97.0224 8.032 97.5557 7.792 97.9504 7.312C98.345 6.832 98.5424 6.10667 98.5424 5.136C98.5424 4.176 98.345 3.456 97.9504 2.976C97.5664 2.496 97.0384 2.256 96.3664 2.256C95.705 2.256 95.1717 2.496 94.7664 2.976C94.3717 3.44533 94.1744 4.16533 94.1744 5.136ZM102.544 5.136C102.544 4.304 102.672 3.568 102.928 2.928C103.195 2.288 103.552 1.75467 104 1.328C104.459 0.890666 104.992 0.56 105.6 0.335999C106.219 0.112 106.886 0 107.6 0C108.315 0 108.976 0.112 109.584 0.335999C110.203 0.56 110.742 0.890666 111.2 1.328C111.659 1.75467 112.016 2.288 112.272 2.928C112.539 3.568 112.672 4.304 112.672 5.136C112.672 5.968 112.544 6.70933 112.288 7.36C112.032 8 111.675 8.53867 111.216 8.976C110.768 9.40267 110.235 9.728 109.616 9.952C108.998 10.176 108.326 10.288 107.6 10.288C106.875 10.288 106.203 10.176 105.584 9.952C104.966 9.71733 104.432 9.38133 103.984 8.944C103.536 8.50667 103.184 7.968 102.928 7.328C102.672 6.688 102.544 5.95733 102.544 5.136ZM105.424 5.136C105.424 6.10667 105.622 6.832 106.016 7.312C106.411 7.792 106.939 8.032 107.6 8.032C108.272 8.032 108.806 7.792 109.2 7.312C109.595 6.832 109.792 6.10667 109.792 5.136C109.792 4.176 109.595 3.456 109.2 2.976C108.816 2.496 108.288 2.256 107.616 2.256C106.955 2.256 106.422 2.496 106.016 2.976C105.622 3.44533 105.424 4.16533 105.424 5.136ZM121.09 0.304C121.165 0.421333 121.229 0.581333 121.282 0.783999C121.346 0.976 121.378 1.17867 121.378 1.392C121.378 1.808 121.288 2.10667 121.106 2.288C120.936 2.45867 120.701 2.544 120.402 2.544H117.042V4.352H120.546C120.632 4.46933 120.701 4.624 120.754 4.816C120.818 5.008 120.85 5.21067 120.85 5.424C120.85 5.82933 120.76 6.12267 120.578 6.304C120.408 6.47467 120.173 6.56 119.874 6.56H117.074V9.936C116.957 9.968 116.77 10 116.514 10.032C116.269 10.064 116.024 10.08 115.778 10.08C115.533 10.08 115.314 10.0587 115.122 10.016C114.941 9.984 114.786 9.92 114.658 9.824C114.53 9.728 114.434 9.59467 114.37 9.424C114.306 9.25333 114.274 9.02933 114.274 8.752V1.792C114.274 1.33333 114.408 0.970666 114.674 0.704C114.941 0.437333 115.304 0.304 115.762 0.304H121.09Z"/>
</svg>
